<svg xmlns="http://www.w3.org/2000/svg" width="4600" height="1200" viewBox="0 0 4600 1200" font-family="Segoe UI, Arial, sans-serif">
<defs><style><![CDATA[.title { font-size: 30px; font-weight: 700; fill: #102a43; }.subtitle { font-size: 15px; fill: #52606d; }.group-title { font-size: 19px; font-weight: 700; fill: #16324f; }.entity { fill: #ffffff; stroke: #334e68; stroke-width: 2.1; }.entity-text { font-size: 15px; font-weight: 700; fill: #102a43; }.diamond { fill: #fff7d6; stroke: #b7791f; stroke-width: 2; }.diamond-text { font-size: 10.5px; font-weight: 700; fill: #7c4a03; }.rel-line { stroke: #486581; stroke-width: 1.9; }.card-bg { fill: #ffffff; stroke: #dd6b20; stroke-width: 1.5; }.card { font-size: 12px; font-weight: 700; fill: #c05621; }.legend { font-size: 13px; fill: #243b53; }]]></style></defs>
<rect width="100%" height="100%" fill="#fbfcfe"/>
<g transform="scale(1.0)">
<text x="36" y="44" class="title">ER Diagram Page 1</text>
<text x="36" y="69" class="subtitle">Landscape report layout: users, catalog, modifiers, and offers.</text>
<rect x="1520" y="18" width="1280" height="52" rx="12" fill="#ffffff" stroke="#d9e2ec"/>
<text x="1538" y="50" class="legend">Landscape version optimized for report pages with extra horizontal spacing.</text>
<rect x="56" y="112" width="288" height="790" rx="22" fill="#eef6ff" stroke="#82b1ff" stroke-width="2"/>
<text x="74" y="144" class="group-title">Users</text>
<rect x="726" y="72" width="758" height="830" rx="22" fill="#effcf4" stroke="#73c98b" stroke-width="2"/>
<text x="744" y="104" class="group-title">Catalog</text>
<rect x="2086" y="72" width="288" height="1030" rx="22" fill="#fff7ed" stroke="#f2b56b" stroke-width="2"/>
<text x="2104" y="104" class="group-title">Modifiers</text>
<rect x="3336" y="142" width="288" height="830" rx="22" fill="#fff1f8" stroke="#eb9ccc" stroke-width="2"/>
<text x="3354" y="174" class="group-title">Offers</text>
<line x1="200.0" y1="254" x2="270" y2="320" class="rel-line"/>
<line x1="270" y1="320" x2="200.0" y2="390" class="rel-line"/>
<polygon points="270,298.0 316.0,320 270,342.0 224.0,320" class="diamond"/>
<text x="270" y="324" text-anchor="middle" class="diamond-text">has</text>
<circle cx="221.0" cy="273.8" r="12" class="card-bg"/>
<text x="221.0" y="277.8" text-anchor="middle" class="card">1</text>
<circle cx="221.0" cy="369.0" r="12" class="card-bg"/>
<text x="221.0" y="373.0" text-anchor="middle" class="card">N</text>
<line x1="200.0" y1="254" x2="270" y2="520" class="rel-line"/>
<line x1="270" y1="520" x2="200.0" y2="590" class="rel-line"/>
<polygon points="270,498.0 316.0,520 270,542.0 224.0,520" class="diamond"/>
<text x="270" y="524" text-anchor="middle" class="diamond-text">logs</text>
<circle cx="221.0" cy="333.8" r="12" class="card-bg"/>
<text x="221.0" y="337.8" text-anchor="middle" class="card">1</text>
<circle cx="221.0" cy="569.0" r="12" class="card-bg"/>
<text x="221.0" y="573.0" text-anchor="middle" class="card">N</text>
<path d="M 980 168 C 1014 138, 1022 156.0, 1020.0 182.0" class="rel-line"/>
<path d="M 1112.0 182.0 C 1110 208.0, 1014 226, 980 196" class="rel-line"/>
<polygon points="1066,160.0 1112.0,182.0 1066,204.0 1020.0,182.0" class="diamond"/>
<text x="1066" y="186.0" text-anchor="middle" class="diamond-text">parent</text>
<circle cx="1008" cy="156" r="12" class="card-bg"/>
<text x="1008" y="160" text-anchor="middle" class="card">1</text>
<circle cx="1008" cy="208" r="12" class="card-bg"/>
<text x="1008" y="212" text-anchor="middle" class="card">N</text>
<line x1="980" y1="182.0" x2="1110" y2="105" class="rel-line"/>
<line x1="1110" y1="105" x2="1230" y2="182.0" class="rel-line"/>
<polygon points="1110,83.0 1156.0,105 1110,127.0 1064.0,105" class="diamond"/>
<text x="1110" y="109" text-anchor="middle" class="diamond-text">classifies</text>
<circle cx="1019.0" cy="158.9" r="12" class="card-bg"/>
<text x="1019.0" y="162.9" text-anchor="middle" class="card">1</text>
<circle cx="1194.0" cy="158.9" r="12" class="card-bg"/>
<text x="1194.0" y="162.9" text-anchor="middle" class="card">N</text>
<line x1="1340.0" y1="214" x2="1380" y2="335" class="rel-line"/>
<line x1="1380" y1="335" x2="1340.0" y2="450" class="rel-line"/>
<polygon points="1380,313.0 1426.0,335 1380,357.0 1334.0,335" class="diamond"/>
<text x="1380" y="339" text-anchor="middle" class="diamond-text">offers</text>
<circle cx="1352.0" cy="250.3" r="12" class="card-bg"/>
<text x="1352.0" y="254.3" text-anchor="middle" class="card">1</text>
<circle cx="1352.0" cy="415.5" r="12" class="card-bg"/>
<text x="1352.0" y="419.5" text-anchor="middle" class="card">N</text>
<line x1="980" y1="482.0" x2="1110" y2="560" class="rel-line"/>
<line x1="1110" y1="560" x2="1230" y2="482.0" class="rel-line"/>
<polygon points="1110,538.0 1156.0,560 1110,582.0 1064.0,560" class="diamond"/>
<text x="1110" y="564" text-anchor="middle" class="diamond-text">used in</text>
<circle cx="1019.0" cy="505.4" r="12" class="card-bg"/>
<text x="1019.0" y="509.4" text-anchor="middle" class="card">1</text>
<circle cx="1194.0" cy="505.4" r="12" class="card-bg"/>
<text x="1194.0" y="509.4" text-anchor="middle" class="card">N</text>
<line x1="1340.0" y1="214" x2="1230" y2="675" class="rel-line"/>
<line x1="1230" y1="675" x2="1105.0" y2="790" class="rel-line"/>
<polygon points="1230,653.0 1276.0,675 1230,697.0 1184.0,675" class="diamond"/>
<text x="1230" y="679" text-anchor="middle" class="diamond-text">maps</text>
<circle cx="1307.0" cy="352.29999999999995" r="12" class="card-bg"/>
<text x="1307.0" y="356.29999999999995" text-anchor="middle" class="card">1</text>
<circle cx="1142.5" cy="755.5" r="12" class="card-bg"/>
<text x="1142.5" y="759.5" text-anchor="middle" class="card">N</text>
<line x1="870.0" y1="214" x2="900" y2="675" class="rel-line"/>
<line x1="900" y1="675" x2="1105.0" y2="790" class="rel-line"/>
<polygon points="900,653.0 946.0,675 900,697.0 854.0,675" class="diamond"/>
<text x="900" y="679" text-anchor="middle" class="diamond-text">groups</text>
<circle cx="879.0" cy="352.29999999999995" r="12" class="card-bg"/>
<text x="879.0" y="356.29999999999995" text-anchor="middle" class="card">1</text>
<circle cx="1043.5" cy="755.5" r="12" class="card-bg"/>
<text x="1043.5" y="759.5" text-anchor="middle" class="card">N</text>
<line x1="1340.0" y1="214" x2="1380" y2="790" class="rel-line"/>
<line x1="1380" y1="790" x2="1340.0" y2="790" class="rel-line"/>
<polygon points="1380,768.0 1426.0,790 1380,812.0 1334.0,790" class="diamond"/>
<text x="1380" y="794" text-anchor="middle" class="diamond-text">shown by</text>
<circle cx="1352.0" cy="386.79999999999995" r="12" class="card-bg"/>
<text x="1352.0" y="390.79999999999995" text-anchor="middle" class="card">1</text>
<circle cx="1352.0" cy="790.0" r="12" class="card-bg"/>
<text x="1352.0" y="794.0" text-anchor="middle" class="card">N</text>
<line x1="1340.0" y1="514" x2="1380" y2="675" class="rel-line"/>
<line x1="1380" y1="675" x2="1340.0" y2="790" class="rel-line"/>
<polygon points="1380,653.0 1426.0,675 1380,697.0 1334.0,675" class="diamond"/>
<text x="1380" y="679" text-anchor="middle" class="diamond-text">variant img</text>
<circle cx="1352.0" cy="562.3" r="12" class="card-bg"/>
<text x="1352.0" y="566.3" text-anchor="middle" class="card">1</text>
<circle cx="1352.0" cy="755.5" r="12" class="card-bg"/>
<text x="1352.0" y="759.5" text-anchor="middle" class="card">N</text>
<line x1="2230.0" y1="214" x2="2250" y2="335" class="rel-line"/>
<line x1="2250" y1="335" x2="2230.0" y2="450" class="rel-line"/>
<polygon points="2250,313.0 2296.0,335 2250,357.0 2204.0,335" class="diamond"/>
<text x="2250" y="339" text-anchor="middle" class="diamond-text">available as</text>
<circle cx="2236.0" cy="250.3" r="12" class="card-bg"/>
<text x="2236.0" y="254.3" text-anchor="middle" class="card">1</text>
<circle cx="2236.0" cy="415.5" r="12" class="card-bg"/>
<text x="2236.0" y="419.5" text-anchor="middle" class="card">N</text>
<line x1="1450" y1="182.0" x2="1760" y2="350" class="rel-line"/>
<line x1="1760" y1="350" x2="2120" y2="482.0" class="rel-line"/>
<polygon points="1760,328.0 1806.0,350 1760,372.0 1714.0,350" class="diamond"/>
<text x="1760" y="354" text-anchor="middle" class="diamond-text">allows</text>
<circle cx="1543.0" cy="232.4" r="12" class="card-bg"/>
<text x="1543.0" y="236.4" text-anchor="middle" class="card">1</text>
<circle cx="2012.0" cy="442.4" r="12" class="card-bg"/>
<text x="2012.0" y="446.4" text-anchor="middle" class="card">N</text>
<line x1="1450" y1="482.0" x2="1760" y2="560" class="rel-line"/>
<line x1="1760" y1="560" x2="2120" y2="482.0" class="rel-line"/>
<polygon points="1760,538.0 1806.0,560 1760,582.0 1714.0,560" class="diamond"/>
<text x="1760" y="564" text-anchor="middle" class="diamond-text">portion allows</text>
<circle cx="1543.0" cy="505.4" r="12" class="card-bg"/>
<text x="1543.0" y="509.4" text-anchor="middle" class="card">1</text>
<circle cx="2012.0" cy="505.4" r="12" class="card-bg"/>
<text x="2012.0" y="509.4" text-anchor="middle" class="card">N</text>
<line x1="1450" y1="182.0" x2="1760" y2="690" class="rel-line"/>
<line x1="1760" y1="690" x2="2120" y2="782.0" class="rel-line"/>
<polygon points="1760,668.0 1806.0,690 1760,712.0 1714.0,690" class="diamond"/>
<text x="1760" y="694" text-anchor="middle" class="diamond-text">has combo</text>
<circle cx="1543.0" cy="334.4" r="12" class="card-bg"/>
<text x="1543.0" y="338.4" text-anchor="middle" class="card">1</text>
<circle cx="2012.0" cy="754.4" r="12" class="card-bg"/>
<text x="2012.0" y="758.4" text-anchor="middle" class="card">N</text>
<line x1="1450" y1="482.0" x2="1760" y2="820" class="rel-line"/>
<line x1="1760" y1="820" x2="2120" y2="782.0" class="rel-line"/>
<polygon points="1760,798.0 1806.0,820 1760,842.0 1714.0,820" class="diamond"/>
<text x="1760" y="824" text-anchor="middle" class="diamond-text">combo for</text>
<circle cx="1543.0" cy="583.4" r="12" class="card-bg"/>
<text x="1543.0" y="587.4" text-anchor="middle" class="card">1</text>
<circle cx="2012.0" cy="793.4" r="12" class="card-bg"/>
<text x="2012.0" y="797.4" text-anchor="middle" class="card">N</text>
<line x1="2230.0" y1="814" x2="2250" y2="905" class="rel-line"/>
<line x1="2250" y1="905" x2="2230.0" y2="990" class="rel-line"/>
<polygon points="2250,883.0 2296.0,905 2250,927.0 2204.0,905" class="diamond"/>
<text x="2250" y="909" text-anchor="middle" class="diamond-text">contains</text>
<circle cx="2236.0" cy="841.3" r="12" class="card-bg"/>
<text x="2236.0" y="845.3" text-anchor="middle" class="card">1</text>
<circle cx="2236.0" cy="964.5" r="12" class="card-bg"/>
<text x="2236.0" y="968.5" text-anchor="middle" class="card">N</text>
<line x1="2230.0" y1="214" x2="2770" y2="660" class="rel-line"/>
<line x1="2770" y1="660" x2="2230.0" y2="990" class="rel-line"/>
<polygon points="2770,638.0 2816.0,660 2770,682.0 2724.0,660" class="diamond"/>
<text x="2770" y="664" text-anchor="middle" class="diamond-text">item</text>
<circle cx="2392.0" cy="347.79999999999995" r="12" class="card-bg"/>
<text x="2392.0" y="351.79999999999995" text-anchor="middle" class="card">1</text>
<circle cx="2392.0" cy="891.0" r="12" class="card-bg"/>
<text x="2392.0" y="895.0" text-anchor="middle" class="card">N</text>
<line x1="3480.0" y1="284" x2="3500" y2="450" class="rel-line"/>
<line x1="3500" y1="450" x2="3480.0" y2="540" class="rel-line"/>
<polygon points="3500,428.0 3546.0,450 3500,472.0 3454.0,450" class="diamond"/>
<text x="3500" y="454" text-anchor="middle" class="diamond-text">targets</text>
<circle cx="3486.0" cy="333.8" r="12" class="card-bg"/>
<text x="3486.0" y="337.8" text-anchor="middle" class="card">1</text>
<circle cx="3486.0" cy="513.0" r="12" class="card-bg"/>
<text x="3486.0" y="517.0" text-anchor="middle" class="card">N</text>
<line x1="1450" y1="182.0" x2="2710" y2="390" class="rel-line"/>
<line x1="2710" y1="390" x2="3370" y2="572.0" class="rel-line"/>
<polygon points="2710,368.0 2756.0,390 2710,412.0 2664.0,390" class="diamond"/>
<text x="2710" y="394" text-anchor="middle" class="diamond-text">offer product</text>
<circle cx="1828.0" cy="244.4" r="12" class="card-bg"/>
<text x="1828.0" y="248.4" text-anchor="middle" class="card">1</text>
<circle cx="3172.0" cy="517.4" r="12" class="card-bg"/>
<text x="3172.0" y="521.4" text-anchor="middle" class="card">N</text>
<line x1="980" y1="182.0" x2="2710" y2="570" class="rel-line"/>
<line x1="2710" y1="570" x2="3370" y2="572.0" class="rel-line"/>
<polygon points="2710,548.0 2756.0,570 2710,592.0 2664.0,570" class="diamond"/>
<text x="2710" y="574" text-anchor="middle" class="diamond-text">offer category</text>
<circle cx="1499.0" cy="298.4" r="12" class="card-bg"/>
<text x="1499.0" y="302.4" text-anchor="middle" class="card">1</text>
<circle cx="3172.0" cy="571.4" r="12" class="card-bg"/>
<text x="3172.0" y="575.4" text-anchor="middle" class="card">N</text>
<line x1="980" y1="182.0" x2="2560" y2="140" class="rel-line"/>
<line x1="2560" y1="140" x2="3370" y2="252.0" class="rel-line"/>
<polygon points="2560,118.0 2606.0,140 2560,162.0 2514.0,140" class="diamond"/>
<text x="2560" y="144" text-anchor="middle" class="diamond-text">cat offer</text>
<circle cx="1454.0" cy="169.4" r="12" class="card-bg"/>
<text x="1454.0" y="173.4" text-anchor="middle" class="card">1</text>
<circle cx="3127.0" cy="218.4" r="12" class="card-bg"/>
<text x="3127.0" y="222.4" text-anchor="middle" class="card">N</text>
<line x1="1450" y1="182.0" x2="2950" y2="140" class="rel-line"/>
<line x1="2950" y1="140" x2="3370" y2="252.0" class="rel-line"/>
<polygon points="2950,118.0 2996.0,140 2950,162.0 2904.0,140" class="diamond"/>
<text x="2950" y="144" text-anchor="middle" class="diamond-text">prod offer</text>
<circle cx="1900.0" cy="169.4" r="12" class="card-bg"/>
<text x="1900.0" y="173.4" text-anchor="middle" class="card">1</text>
<circle cx="3244.0" cy="218.4" r="12" class="card-bg"/>
<text x="3244.0" y="222.4" text-anchor="middle" class="card">N</text>
<line x1="3480.0" y1="284" x2="3480.0" y2="572.0" class="rel-line"/>
<line x1="3480.0" y1="572.0" x2="3480.0" y2="860" class="rel-line"/>
<polygon points="3480.0,550.0 3526.0,572.0 3480.0,594.0 3434.0,572.0" class="diamond"/>
<text x="3480.0" y="576.0" text-anchor="middle" class="diamond-text">used in</text>
<circle cx="3480.0" cy="370.4" r="12" class="card-bg"/>
<text x="3480.0" y="374.4" text-anchor="middle" class="card">1</text>
<circle cx="3480.0" cy="773.6" r="12" class="card-bg"/>
<text x="3480.0" y="777.6" text-anchor="middle" class="card">N</text>
<line x1="310" y1="222.0" x2="1840.0" y2="557.0" class="rel-line"/>
<line x1="1840.0" y1="557.0" x2="3370" y2="892.0" class="rel-line"/>
<polygon points="1840.0,535.0 1886.0,557.0 1840.0,579.0 1794.0,557.0" class="diamond"/>
<text x="1840.0" y="561.0" text-anchor="middle" class="diamond-text">consumes</text>
<circle cx="769.0" cy="322.5" r="12" class="card-bg"/>
<text x="769.0" y="326.5" text-anchor="middle" class="card">1</text>
<circle cx="2911.0" cy="791.5" r="12" class="card-bg"/>
<text x="2911.0" y="795.5" text-anchor="middle" class="card">N</text>
<rect x="90" y="190" width="220" height="64" rx="13" class="entity"/>
<text x="200.0" y="228" text-anchor="middle" class="entity-text">User</text>
<rect x="90" y="390" width="220" height="64" rx="13" class="entity"/>
<text x="200.0" y="428" text-anchor="middle" class="entity-text">User Address</text>
<rect x="90" y="590" width="220" height="64" rx="13" class="entity"/>
<text x="200.0" y="628" text-anchor="middle" class="entity-text">Activity Log</text>
<rect x="90" y="790" width="220" height="64" rx="13" class="entity"/>
<text x="200.0" y="828" text-anchor="middle" class="entity-text">App Settings</text>
<rect x="760" y="150" width="220" height="64" rx="13" class="entity"/>
<text x="870.0" y="188" text-anchor="middle" class="entity-text">Category</text>
<rect x="1230" y="150" width="220" height="64" rx="13" class="entity"/>
<text x="1340.0" y="188" text-anchor="middle" class="entity-text">Product</text>
<rect x="760" y="450" width="220" height="64" rx="13" class="entity"/>
<text x="870.0" y="488" text-anchor="middle" class="entity-text">Portion</text>
<rect x="1230" y="450" width="220" height="64" rx="13" class="entity"/>
<text x="1340.0" y="488" text-anchor="middle" class="entity-text">Product Portion</text>
<rect x="995" y="790" width="220" height="64" rx="13" class="entity"/>
<text x="1105.0" y="828" text-anchor="middle" class="entity-text">Product Category</text>
<rect x="1230" y="790" width="220" height="64" rx="13" class="entity"/>
<text x="1340.0" y="828" text-anchor="middle" class="entity-text">Product Image</text>
<rect x="2120" y="150" width="220" height="64" rx="13" class="entity"/>
<text x="2230.0" y="188" text-anchor="middle" class="entity-text">Modifier</text>
<rect x="2120" y="450" width="220" height="64" rx="13" class="entity"/>
<text x="2230.0" y="488" text-anchor="middle" class="entity-text">Modifier Portion</text>
<rect x="2120" y="750" width="220" height="64" rx="13" class="entity"/>
<text x="2230.0" y="788" text-anchor="middle" class="entity-text">Modifier Combination</text>
<rect x="2120" y="990" width="220" height="64" rx="13" class="entity"/>
<text x="2230.0" y="1028" text-anchor="middle" class="entity-text">Combination Item</text>
<rect x="3370" y="220" width="220" height="64" rx="13" class="entity"/>
<text x="3480.0" y="258" text-anchor="middle" class="entity-text">Offer</text>
<rect x="3370" y="540" width="220" height="64" rx="13" class="entity"/>
<text x="3480.0" y="578" text-anchor="middle" class="entity-text">Offer Product Category</text>
<rect x="3370" y="860" width="220" height="64" rx="13" class="entity"/>
<text x="3480.0" y="898" text-anchor="middle" class="entity-text">Offer Usage</text>
</g></svg>