<svg xmlns="http://www.w3.org/2000/svg" width="2860" height="1030" viewBox="0 0 2860 1030" font-family="Segoe UI, Arial, sans-serif">
<defs><style><![CDATA[.title { font-size: 28px; font-weight: 700; fill: #102a43; }.subtitle { font-size: 13px; fill: #52606d; }.group-title { font-size: 18px; font-weight: 700; fill: #16324f; }.entity { fill: #ffffff; stroke: #334e68; stroke-width: 2; }.entity-text { font-size: 15px; font-weight: 700; fill: #102a43; }.diamond { fill: #fff7d6; stroke: #b7791f; stroke-width: 2; }.diamond-text { font-size: 10px; font-weight: 700; fill: #7c4a03; }.rel-line { stroke: #486581; stroke-width: 1.8; }.card-bg { fill: #ffffff; stroke: #dd6b20; stroke-width: 1.5; }.card { font-size: 12px; font-weight: 700; fill: #c05621; }.legend { font-size: 13px; fill: #243b53; }]]></style></defs>
<rect width="100%" height="100%" fill="#fbfcfe"/>
<text x="34" y="42" class="title">E-commerce Conceptual ER Diagram</text>
<text x="34" y="64" class="subtitle">Horizontal report version: entities, relationship diamonds, and clear 1 / N cardinality labels from New_schema.sql.</text>
<rect x="1500" y="18" width="1320" height="52" rx="12" fill="#ffffff" stroke="#d9e2ec"/>
<text x="1518" y="50" class="legend">Legend: rectangle = entity | diamond = relationship | circle labels show cardinality | audit links like created_by / updated_by are intentionally hidden for readability.</text>
<rect x="42" y="100" width="266" height="658" rx="20" fill="#eef6ff" stroke="#82b1ff" stroke-width="2"/>
<text x="58" y="130" class="group-title">Users</text>
<rect x="392" y="70" width="606" height="638" rx="20" fill="#effcf4" stroke="#73c98b" stroke-width="2"/>
<text x="408" y="100" class="group-title">Catalog</text>
<rect x="1112" y="70" width="266" height="718" rx="20" fill="#fff7ed" stroke="#f2b56b" stroke-width="2"/>
<text x="1128" y="100" class="group-title">Modifiers</text>
<rect x="1462" y="70" width="266" height="638" rx="20" fill="#fff1f8" stroke="#eb9ccc" stroke-width="2"/>
<text x="1478" y="100" class="group-title">Offers</text>
<rect x="1832" y="70" width="616" height="898" rx="20" fill="#f4f0ff" stroke="#b29bff" stroke-width="2"/>
<text x="1848" y="100" class="group-title">Checkout</text>
<rect x="2562" y="170" width="266" height="418" rx="20" fill="#ecfffb" stroke="#63d3c0" stroke-width="2"/>
<text x="2578" y="200" class="group-title">Reviews</text>
<line x1="175.0" y1="232" x2="175.0" y2="281.0" class="rel-line"/>
<line x1="175.0" y1="281.0" x2="175.0" y2="330" class="rel-line"/>
<polygon points="175.0,260.0 218.0,281.0 175.0,302.0 132.0,281.0" class="diamond"/>
<text x="175.0" y="285.0" text-anchor="middle" class="diamond-text">has</text>
<rect x="164.0" y="232.68" width="22" height="22" rx="11" class="card-bg"/>
<text x="175.0" y="248.68" text-anchor="middle" class="card">1</text>
<rect x="164.0" y="299.32" width="22" height="22" rx="11" class="card-bg"/>
<text x="175.0" y="315.32" text-anchor="middle" class="card">N</text>
<line x1="175.0" y1="232" x2="175.0" y2="361.0" class="rel-line"/>
<line x1="175.0" y1="361.0" x2="175.0" y2="490" class="rel-line"/>
<polygon points="175.0,340.0 218.0,361.0 175.0,382.0 132.0,361.0" class="diamond"/>
<text x="175.0" y="365.0" text-anchor="middle" class="diamond-text">logs</text>
<rect x="164.0" y="258.28" width="22" height="22" rx="11" class="card-bg"/>
<text x="175.0" y="274.28" text-anchor="middle" class="card">1</text>
<rect x="164.0" y="433.72" width="22" height="22" rx="11" class="card-bg"/>
<text x="175.0" y="449.72" text-anchor="middle" class="card">N</text>
<path d="M 630 156 C 660 130, 663 145.0, 665.0 171.0" class="rel-line"/>
<path d="M 751.0 171.0 C 753 197.0, 660 212, 630 186" class="rel-line"/>
<polygon points="708,150.0 751.0,171.0 708,192.0 665.0,171.0" class="diamond"/>
<text x="708" y="175.0" text-anchor="middle" class="diamond-text">parent</text>
<rect x="645" y="131" width="22" height="22" rx="11" class="card-bg"/>
<text x="656" y="147" text-anchor="middle" class="card">1</text>
<rect x="645" y="181" width="22" height="22" rx="11" class="card-bg"/>
<text x="656" y="197" text-anchor="middle" class="card">N</text>
<line x1="630" y1="171.0" x2="695.0" y2="171.0" class="rel-line"/>
<line x1="695.0" y1="171.0" x2="760" y2="171.0" class="rel-line"/>
<polygon points="695.0,150.0 738.0,171.0 695.0,192.0 652.0,171.0" class="diamond"/>
<text x="695.0" y="175.0" text-anchor="middle" class="diamond-text">classifies</text>
<rect x="639.8" y="156.0" width="22" height="22" rx="11" class="card-bg"/>
<text x="650.8" y="172.0" text-anchor="middle" class="card">1</text>
<rect x="728.2" y="156.0" width="22" height="22" rx="11" class="card-bg"/>
<text x="739.2" y="172.0" text-anchor="middle" class="card">N</text>
<line x1="865.0" y1="202" x2="865.0" y2="291.0" class="rel-line"/>
<line x1="865.0" y1="291.0" x2="865.0" y2="380" class="rel-line"/>
<polygon points="865.0,270.0 908.0,291.0 865.0,312.0 822.0,291.0" class="diamond"/>
<text x="865.0" y="295.0" text-anchor="middle" class="diamond-text">offers</text>
<rect x="854.0" y="215.48" width="22" height="22" rx="11" class="card-bg"/>
<text x="865.0" y="231.48" text-anchor="middle" class="card">1</text>
<rect x="854.0" y="336.52" width="22" height="22" rx="11" class="card-bg"/>
<text x="865.0" y="352.52" text-anchor="middle" class="card">N</text>
<line x1="630" y1="411.0" x2="695.0" y2="411.0" class="rel-line"/>
<line x1="695.0" y1="411.0" x2="760" y2="411.0" class="rel-line"/>
<polygon points="695.0,390.0 738.0,411.0 695.0,432.0 652.0,411.0" class="diamond"/>
<text x="695.0" y="415.0" text-anchor="middle" class="diamond-text">used in</text>
<rect x="639.8" y="396.0" width="22" height="22" rx="11" class="card-bg"/>
<text x="650.8" y="412.0" text-anchor="middle" class="card">1</text>
<rect x="728.2" y="396.0" width="22" height="22" rx="11" class="card-bg"/>
<text x="739.2" y="412.0" text-anchor="middle" class="card">N</text>
<line x1="865.0" y1="202" x2="780.0" y2="401.0" class="rel-line"/>
<line x1="780.0" y1="401.0" x2="695.0" y2="600" class="rel-line"/>
<polygon points="780.0,380.0 823.0,401.0 780.0,422.0 737.0,401.0" class="diamond"/>
<text x="780.0" y="405.0" text-anchor="middle" class="diamond-text">maps</text>
<rect x="826.8" y="250.68" width="22" height="22" rx="11" class="card-bg"/>
<text x="837.8" y="266.68" text-anchor="middle" class="card">1</text>
<rect x="711.2" y="521.32" width="22" height="22" rx="11" class="card-bg"/>
<text x="722.2" y="537.32" text-anchor="middle" class="card">N</text>
<line x1="525.0" y1="202" x2="610.0" y2="401.0" class="rel-line"/>
<line x1="610.0" y1="401.0" x2="695.0" y2="600" class="rel-line"/>
<polygon points="610.0,380.0 653.0,401.0 610.0,422.0 567.0,401.0" class="diamond"/>
<text x="610.0" y="405.0" text-anchor="middle" class="diamond-text">groups</text>
<rect x="541.2" y="250.68" width="22" height="22" rx="11" class="card-bg"/>
<text x="552.2" y="266.68" text-anchor="middle" class="card">1</text>
<rect x="656.8" y="521.32" width="22" height="22" rx="11" class="card-bg"/>
<text x="667.8" y="537.32" text-anchor="middle" class="card">N</text>
<line x1="865.0" y1="202" x2="865.0" y2="401.0" class="rel-line"/>
<line x1="865.0" y1="401.0" x2="865.0" y2="600" class="rel-line"/>
<polygon points="865.0,380.0 908.0,401.0 865.0,422.0 822.0,401.0" class="diamond"/>
<text x="865.0" y="405.0" text-anchor="middle" class="diamond-text">shown by</text>
<rect x="854.0" y="250.68" width="22" height="22" rx="11" class="card-bg"/>
<text x="865.0" y="266.68" text-anchor="middle" class="card">1</text>
<rect x="854.0" y="521.32" width="22" height="22" rx="11" class="card-bg"/>
<text x="865.0" y="537.32" text-anchor="middle" class="card">N</text>
<line x1="865.0" y1="442" x2="865.0" y2="521.0" class="rel-line"/>
<line x1="865.0" y1="521.0" x2="865.0" y2="600" class="rel-line"/>
<polygon points="865.0,500.0 908.0,521.0 865.0,542.0 822.0,521.0" class="diamond"/>
<text x="865.0" y="525.0" text-anchor="middle" class="diamond-text">variant img</text>
<rect x="854.0" y="452.28" width="22" height="22" rx="11" class="card-bg"/>
<text x="865.0" y="468.28" text-anchor="middle" class="card">1</text>
<rect x="854.0" y="559.72" width="22" height="22" rx="11" class="card-bg"/>
<text x="865.0" y="575.72" text-anchor="middle" class="card">N</text>
<line x1="1245.0" y1="202" x2="1245.0" y2="261.0" class="rel-line"/>
<line x1="1245.0" y1="261.0" x2="1245.0" y2="320" class="rel-line"/>
<polygon points="1245.0,240.0 1288.0,261.0 1245.0,282.0 1202.0,261.0" class="diamond"/>
<text x="1245.0" y="265.0" text-anchor="middle" class="diamond-text">available as</text>
<rect x="1234.0" y="205.88" width="22" height="22" rx="11" class="card-bg"/>
<text x="1245.0" y="221.88" text-anchor="middle" class="card">1</text>
<rect x="1234.0" y="286.12" width="22" height="22" rx="11" class="card-bg"/>
<text x="1245.0" y="302.12" text-anchor="middle" class="card">N</text>
<line x1="970" y1="171.0" x2="1055.0" y2="261.0" class="rel-line"/>
<line x1="1055.0" y1="261.0" x2="1140" y2="351.0" class="rel-line"/>
<polygon points="1055.0,240.0 1098.0,261.0 1055.0,282.0 1012.0,261.0" class="diamond"/>
<text x="1055.0" y="265.0" text-anchor="middle" class="diamond-text">allows</text>
<rect x="986.2" y="184.8" width="22" height="22" rx="11" class="card-bg"/>
<text x="997.2" y="200.8" text-anchor="middle" class="card">1</text>
<rect x="1101.8" y="307.2" width="22" height="22" rx="11" class="card-bg"/>
<text x="1112.8" y="323.2" text-anchor="middle" class="card">N</text>
<line x1="970" y1="411.0" x2="1055.0" y2="381.0" class="rel-line"/>
<line x1="1055.0" y1="381.0" x2="1140" y2="351.0" class="rel-line"/>
<polygon points="1055.0,360.0 1098.0,381.0 1055.0,402.0 1012.0,381.0" class="diamond"/>
<text x="1055.0" y="385.0" text-anchor="middle" class="diamond-text">portion allows</text>
<rect x="986.2" y="386.4" width="22" height="22" rx="11" class="card-bg"/>
<text x="997.2" y="402.4" text-anchor="middle" class="card">1</text>
<rect x="1101.8" y="345.6" width="22" height="22" rx="11" class="card-bg"/>
<text x="1112.8" y="361.6" text-anchor="middle" class="card">N</text>
<line x1="970" y1="171.0" x2="1055.0" y2="351.0" class="rel-line"/>
<line x1="1055.0" y1="351.0" x2="1140" y2="531.0" class="rel-line"/>
<polygon points="1055.0,330.0 1098.0,351.0 1055.0,372.0 1012.0,351.0" class="diamond"/>
<text x="1055.0" y="355.0" text-anchor="middle" class="diamond-text">has combo</text>
<rect x="986.2" y="213.6" width="22" height="22" rx="11" class="card-bg"/>
<text x="997.2" y="229.6" text-anchor="middle" class="card">1</text>
<rect x="1101.8" y="458.4" width="22" height="22" rx="11" class="card-bg"/>
<text x="1112.8" y="474.4" text-anchor="middle" class="card">N</text>
<line x1="970" y1="411.0" x2="1055.0" y2="471.0" class="rel-line"/>
<line x1="1055.0" y1="471.0" x2="1140" y2="531.0" class="rel-line"/>
<polygon points="1055.0,450.0 1098.0,471.0 1055.0,492.0 1012.0,471.0" class="diamond"/>
<text x="1055.0" y="475.0" text-anchor="middle" class="diamond-text">combo for</text>
<rect x="986.2" y="415.2" width="22" height="22" rx="11" class="card-bg"/>
<text x="997.2" y="431.2" text-anchor="middle" class="card">1</text>
<rect x="1101.8" y="496.8" width="22" height="22" rx="11" class="card-bg"/>
<text x="1112.8" y="512.8" text-anchor="middle" class="card">N</text>
<line x1="1245.0" y1="562" x2="1245.0" y2="621.0" class="rel-line"/>
<line x1="1245.0" y1="621.0" x2="1245.0" y2="680" class="rel-line"/>
<polygon points="1245.0,600.0 1288.0,621.0 1245.0,642.0 1202.0,621.0" class="diamond"/>
<text x="1245.0" y="625.0" text-anchor="middle" class="diamond-text">contains</text>
<rect x="1234.0" y="565.88" width="22" height="22" rx="11" class="card-bg"/>
<text x="1245.0" y="581.88" text-anchor="middle" class="card">1</text>
<rect x="1234.0" y="646.12" width="22" height="22" rx="11" class="card-bg"/>
<text x="1245.0" y="662.12" text-anchor="middle" class="card">N</text>
<line x1="1245.0" y1="202" x2="1245.0" y2="441.0" class="rel-line"/>
<line x1="1245.0" y1="441.0" x2="1245.0" y2="680" class="rel-line"/>
<polygon points="1245.0,420.0 1288.0,441.0 1245.0,462.0 1202.0,441.0" class="diamond"/>
<text x="1245.0" y="445.0" text-anchor="middle" class="diamond-text">item</text>
<rect x="1234.0" y="263.48" width="22" height="22" rx="11" class="card-bg"/>
<text x="1245.0" y="279.48" text-anchor="middle" class="card">1</text>
<rect x="1234.0" y="588.52" width="22" height="22" rx="11" class="card-bg"/>
<text x="1245.0" y="604.52" text-anchor="middle" class="card">N</text>
<line x1="1595.0" y1="202" x2="1595.0" y2="281.0" class="rel-line"/>
<line x1="1595.0" y1="281.0" x2="1595.0" y2="360" class="rel-line"/>
<polygon points="1595.0,260.0 1638.0,281.0 1595.0,302.0 1552.0,281.0" class="diamond"/>
<text x="1595.0" y="285.0" text-anchor="middle" class="diamond-text">targets</text>
<rect x="1584.0" y="212.28" width="22" height="22" rx="11" class="card-bg"/>
<text x="1595.0" y="228.28" text-anchor="middle" class="card">1</text>
<rect x="1584.0" y="319.72" width="22" height="22" rx="11" class="card-bg"/>
<text x="1595.0" y="335.72" text-anchor="middle" class="card">N</text>
<line x1="970" y1="171.0" x2="1230.0" y2="281.0" class="rel-line"/>
<line x1="1230.0" y1="281.0" x2="1490" y2="391.0" class="rel-line"/>
<polygon points="1230.0,260.0 1273.0,281.0 1230.0,302.0 1187.0,281.0" class="diamond"/>
<text x="1230.0" y="285.0" text-anchor="middle" class="diamond-text">offer product</text>
<rect x="1042.2" y="191.2" width="22" height="22" rx="11" class="card-bg"/>
<text x="1053.2" y="207.2" text-anchor="middle" class="card">1</text>
<rect x="1395.8" y="340.8" width="22" height="22" rx="11" class="card-bg"/>
<text x="1406.8" y="356.8" text-anchor="middle" class="card">N</text>
<line x1="630" y1="171.0" x2="1060.0" y2="281.0" class="rel-line"/>
<line x1="1060.0" y1="281.0" x2="1490" y2="391.0" class="rel-line"/>
<polygon points="1060.0,260.0 1103.0,281.0 1060.0,302.0 1017.0,281.0" class="diamond"/>
<text x="1060.0" y="285.0" text-anchor="middle" class="diamond-text">offer category</text>
<rect x="756.6" y="191.2" width="22" height="22" rx="11" class="card-bg"/>
<text x="767.6" y="207.2" text-anchor="middle" class="card">1</text>
<rect x="1341.4" y="340.8" width="22" height="22" rx="11" class="card-bg"/>
<text x="1352.4" y="356.8" text-anchor="middle" class="card">N</text>
<line x1="630" y1="171.0" x2="1060.0" y2="171.0" class="rel-line"/>
<line x1="1060.0" y1="171.0" x2="1490" y2="171.0" class="rel-line"/>
<polygon points="1060.0,150.0 1103.0,171.0 1060.0,192.0 1017.0,171.0" class="diamond"/>
<text x="1060.0" y="175.0" text-anchor="middle" class="diamond-text">cat offer</text>
<rect x="756.6" y="156.0" width="22" height="22" rx="11" class="card-bg"/>
<text x="767.6" y="172.0" text-anchor="middle" class="card">1</text>
<rect x="1341.4" y="156.0" width="22" height="22" rx="11" class="card-bg"/>
<text x="1352.4" y="172.0" text-anchor="middle" class="card">N</text>
<line x1="970" y1="171.0" x2="1230.0" y2="171.0" class="rel-line"/>
<line x1="1230.0" y1="171.0" x2="1490" y2="171.0" class="rel-line"/>
<polygon points="1230.0,150.0 1273.0,171.0 1230.0,192.0 1187.0,171.0" class="diamond"/>
<text x="1230.0" y="175.0" text-anchor="middle" class="diamond-text">prod offer</text>
<rect x="1042.2" y="156.0" width="22" height="22" rx="11" class="card-bg"/>
<text x="1053.2" y="172.0" text-anchor="middle" class="card">1</text>
<rect x="1395.8" y="156.0" width="22" height="22" rx="11" class="card-bg"/>
<text x="1406.8" y="172.0" text-anchor="middle" class="card">N</text>
<line x1="280" y1="201.0" x2="1070.0" y2="186.0" class="rel-line"/>
<line x1="1070.0" y1="186.0" x2="1860" y2="171.0" class="rel-line"/>
<polygon points="1070.0,165.0 1113.0,186.0 1070.0,207.0 1027.0,186.0" class="diamond"/>
<text x="1070.0" y="190.0" text-anchor="middle" class="diamond-text">owns</text>
<rect x="521.8" y="181.2" width="22" height="22" rx="11" class="card-bg"/>
<text x="532.8" y="197.2" text-anchor="middle" class="card">1</text>
<rect x="1596.2" y="160.8" width="22" height="22" rx="11" class="card-bg"/>
<text x="1607.2" y="176.8" text-anchor="middle" class="card">1</text>
<line x1="1700" y1="171.0" x2="1780.0" y2="171.0" class="rel-line"/>
<line x1="1780.0" y1="171.0" x2="1860" y2="171.0" class="rel-line"/>
<polygon points="1780.0,150.0 1823.0,171.0 1780.0,192.0 1737.0,171.0" class="diamond"/>
<text x="1780.0" y="175.0" text-anchor="middle" class="diamond-text">applies</text>
<rect x="1714.6" y="156.0" width="22" height="22" rx="11" class="card-bg"/>
<text x="1725.6" y="172.0" text-anchor="middle" class="card">1</text>
<rect x="1823.4" y="156.0" width="22" height="22" rx="11" class="card-bg"/>
<text x="1834.4" y="172.0" text-anchor="middle" class="card">N</text>
<line x1="1965.0" y1="202" x2="1965.0" y2="261.0" class="rel-line"/>
<line x1="1965.0" y1="261.0" x2="1965.0" y2="320" class="rel-line"/>
<polygon points="1965.0,240.0 2008.0,261.0 1965.0,282.0 1922.0,261.0" class="diamond"/>
<text x="1965.0" y="265.0" text-anchor="middle" class="diamond-text">contains</text>
<rect x="1954.0" y="205.88" width="22" height="22" rx="11" class="card-bg"/>
<text x="1965.0" y="221.88" text-anchor="middle" class="card">1</text>
<rect x="1954.0" y="286.12" width="22" height="22" rx="11" class="card-bg"/>
<text x="1965.0" y="302.12" text-anchor="middle" class="card">N</text>
<line x1="970" y1="171.0" x2="1415.0" y2="261.0" class="rel-line"/>
<line x1="1415.0" y1="261.0" x2="1860" y2="351.0" class="rel-line"/>
<polygon points="1415.0,240.0 1458.0,261.0 1415.0,282.0 1372.0,261.0" class="diamond"/>
<text x="1415.0" y="265.0" text-anchor="middle" class="diamond-text">selected</text>
<rect x="1101.4" y="184.8" width="22" height="22" rx="11" class="card-bg"/>
<text x="1112.4" y="200.8" text-anchor="middle" class="card">1</text>
<rect x="1706.6" y="307.2" width="22" height="22" rx="11" class="card-bg"/>
<text x="1717.6" y="323.2" text-anchor="middle" class="card">N</text>
<line x1="970" y1="411.0" x2="1415.0" y2="381.0" class="rel-line"/>
<line x1="1415.0" y1="381.0" x2="1860" y2="351.0" class="rel-line"/>
<polygon points="1415.0,360.0 1458.0,381.0 1415.0,402.0 1372.0,381.0" class="diamond"/>
<text x="1415.0" y="385.0" text-anchor="middle" class="diamond-text">portion</text>
<rect x="1101.4" y="386.4" width="22" height="22" rx="11" class="card-bg"/>
<text x="1112.4" y="402.4" text-anchor="middle" class="card">1</text>
<rect x="1706.6" y="345.6" width="22" height="22" rx="11" class="card-bg"/>
<text x="1717.6" y="361.6" text-anchor="middle" class="card">N</text>
<line x1="1350" y1="531.0" x2="1605.0" y2="441.0" class="rel-line"/>
<line x1="1605.0" y1="441.0" x2="1860" y2="351.0" class="rel-line"/>
<polygon points="1605.0,420.0 1648.0,441.0 1605.0,462.0 1562.0,441.0" class="diamond"/>
<text x="1605.0" y="445.0" text-anchor="middle" class="diamond-text">combo</text>
<rect x="1420.6" y="487.2" width="22" height="22" rx="11" class="card-bg"/>
<text x="1431.6" y="503.2" text-anchor="middle" class="card">1</text>
<rect x="1767.4" y="364.8" width="22" height="22" rx="11" class="card-bg"/>
<text x="1778.4" y="380.8" text-anchor="middle" class="card">N</text>
<line x1="1700" y1="171.0" x2="1780.0" y2="261.0" class="rel-line"/>
<line x1="1780.0" y1="261.0" x2="1860" y2="351.0" class="rel-line"/>
<polygon points="1780.0,240.0 1823.0,261.0 1780.0,282.0 1737.0,261.0" class="diamond"/>
<text x="1780.0" y="265.0" text-anchor="middle" class="diamond-text">discount</text>
<rect x="1714.6" y="184.8" width="22" height="22" rx="11" class="card-bg"/>
<text x="1725.6" y="200.8" text-anchor="middle" class="card">1</text>
<rect x="1823.4" y="307.2" width="22" height="22" rx="11" class="card-bg"/>
<text x="1834.4" y="323.2" text-anchor="middle" class="card">N</text>
<line x1="1965.0" y1="382" x2="1965.0" y2="441.0" class="rel-line"/>
<line x1="1965.0" y1="441.0" x2="1965.0" y2="500" class="rel-line"/>
<polygon points="1965.0,420.0 2008.0,441.0 1965.0,462.0 1922.0,441.0" class="diamond"/>
<text x="1965.0" y="445.0" text-anchor="middle" class="diamond-text">uses</text>
<rect x="1954.0" y="385.88" width="22" height="22" rx="11" class="card-bg"/>
<text x="1965.0" y="401.88" text-anchor="middle" class="card">1</text>
<rect x="1954.0" y="466.12" width="22" height="22" rx="11" class="card-bg"/>
<text x="1965.0" y="482.12" text-anchor="middle" class="card">N</text>
<line x1="1350" y1="171.0" x2="1605.0" y2="351.0" class="rel-line"/>
<line x1="1605.0" y1="351.0" x2="1860" y2="531.0" class="rel-line"/>
<polygon points="1605.0,330.0 1648.0,351.0 1605.0,372.0 1562.0,351.0" class="diamond"/>
<text x="1605.0" y="355.0" text-anchor="middle" class="diamond-text">picked</text>
<rect x="1420.6" y="213.6" width="22" height="22" rx="11" class="card-bg"/>
<text x="1431.6" y="229.6" text-anchor="middle" class="card">1</text>
<rect x="1767.4" y="458.4" width="22" height="22" rx="11" class="card-bg"/>
<text x="1778.4" y="474.4" text-anchor="middle" class="card">N</text>
<line x1="280" y1="201.0" x2="1245.0" y2="186.0" class="rel-line"/>
<line x1="1245.0" y1="186.0" x2="2210" y2="171.0" class="rel-line"/>
<polygon points="1245.0,165.0 1288.0,186.0 1245.0,207.0 1202.0,186.0" class="diamond"/>
<text x="1245.0" y="190.0" text-anchor="middle" class="diamond-text">places</text>
<rect x="577.8" y="181.2" width="22" height="22" rx="11" class="card-bg"/>
<text x="588.8" y="197.2" text-anchor="middle" class="card">1</text>
<rect x="1890.2" y="160.8" width="22" height="22" rx="11" class="card-bg"/>
<text x="1901.2" y="176.8" text-anchor="middle" class="card">N</text>
<line x1="280" y1="361.0" x2="1245.0" y2="266.0" class="rel-line"/>
<line x1="1245.0" y1="266.0" x2="2210" y2="171.0" class="rel-line"/>
<polygon points="1245.0,245.0 1288.0,266.0 1245.0,287.0 1202.0,266.0" class="diamond"/>
<text x="1245.0" y="270.0" text-anchor="middle" class="diamond-text">ships to</text>
<rect x="577.8" y="315.6" width="22" height="22" rx="11" class="card-bg"/>
<text x="588.8" y="331.6" text-anchor="middle" class="card">1</text>
<rect x="1890.2" y="186.4" width="22" height="22" rx="11" class="card-bg"/>
<text x="1901.2" y="202.4" text-anchor="middle" class="card">N</text>
<line x1="2315.0" y1="202" x2="2315.0" y2="261.0" class="rel-line"/>
<line x1="2315.0" y1="261.0" x2="2315.0" y2="320" class="rel-line"/>
<polygon points="2315.0,240.0 2358.0,261.0 2315.0,282.0 2272.0,261.0" class="diamond"/>
<text x="2315.0" y="265.0" text-anchor="middle" class="diamond-text">contains</text>
<rect x="2304.0" y="205.88" width="22" height="22" rx="11" class="card-bg"/>
<text x="2315.0" y="221.88" text-anchor="middle" class="card">1</text>
<rect x="2304.0" y="286.12" width="22" height="22" rx="11" class="card-bg"/>
<text x="2315.0" y="302.12" text-anchor="middle" class="card">N</text>
<line x1="970" y1="171.0" x2="1590.0" y2="261.0" class="rel-line"/>
<line x1="1590.0" y1="261.0" x2="2210" y2="351.0" class="rel-line"/>
<polygon points="1590.0,240.0 1633.0,261.0 1590.0,282.0 1547.0,261.0" class="diamond"/>
<text x="1590.0" y="265.0" text-anchor="middle" class="diamond-text">ordered</text>
<rect x="1157.4" y="184.8" width="22" height="22" rx="11" class="card-bg"/>
<text x="1168.4" y="200.8" text-anchor="middle" class="card">1</text>
<rect x="2000.6" y="307.2" width="22" height="22" rx="11" class="card-bg"/>
<text x="2011.6" y="323.2" text-anchor="middle" class="card">N</text>
<line x1="970" y1="411.0" x2="1590.0" y2="381.0" class="rel-line"/>
<line x1="1590.0" y1="381.0" x2="2210" y2="351.0" class="rel-line"/>
<polygon points="1590.0,360.0 1633.0,381.0 1590.0,402.0 1547.0,381.0" class="diamond"/>
<text x="1590.0" y="385.0" text-anchor="middle" class="diamond-text">portion</text>
<rect x="1157.4" y="386.4" width="22" height="22" rx="11" class="card-bg"/>
<text x="1168.4" y="402.4" text-anchor="middle" class="card">1</text>
<rect x="2000.6" y="345.6" width="22" height="22" rx="11" class="card-bg"/>
<text x="2011.6" y="361.6" text-anchor="middle" class="card">N</text>
<line x1="1350" y1="171.0" x2="1780.0" y2="261.0" class="rel-line"/>
<line x1="1780.0" y1="261.0" x2="2210" y2="351.0" class="rel-line"/>
<polygon points="1780.0,240.0 1823.0,261.0 1780.0,282.0 1737.0,261.0" class="diamond"/>
<text x="1780.0" y="265.0" text-anchor="middle" class="diamond-text">modifier</text>
<rect x="1476.6" y="184.8" width="22" height="22" rx="11" class="card-bg"/>
<text x="1487.6" y="200.8" text-anchor="middle" class="card">1</text>
<rect x="2061.4" y="307.2" width="22" height="22" rx="11" class="card-bg"/>
<text x="2072.4" y="323.2" text-anchor="middle" class="card">N</text>
<line x1="2315.0" y1="382" x2="2315.0" y2="441.0" class="rel-line"/>
<line x1="2315.0" y1="441.0" x2="2315.0" y2="500" class="rel-line"/>
<polygon points="2315.0,420.0 2358.0,441.0 2315.0,462.0 2272.0,441.0" class="diamond"/>
<text x="2315.0" y="445.0" text-anchor="middle" class="diamond-text">has</text>
<rect x="2304.0" y="385.88" width="22" height="22" rx="11" class="card-bg"/>
<text x="2315.0" y="401.88" text-anchor="middle" class="card">1</text>
<rect x="2304.0" y="466.12" width="22" height="22" rx="11" class="card-bg"/>
<text x="2315.0" y="482.12" text-anchor="middle" class="card">N</text>
<line x1="1350" y1="171.0" x2="1780.0" y2="351.0" class="rel-line"/>
<line x1="1780.0" y1="351.0" x2="2210" y2="531.0" class="rel-line"/>
<polygon points="1780.0,330.0 1823.0,351.0 1780.0,372.0 1737.0,351.0" class="diamond"/>
<text x="1780.0" y="355.0" text-anchor="middle" class="diamond-text">line</text>
<rect x="1476.6" y="213.6" width="22" height="22" rx="11" class="card-bg"/>
<text x="1487.6" y="229.6" text-anchor="middle" class="card">1</text>
<rect x="2061.4" y="458.4" width="22" height="22" rx="11" class="card-bg"/>
<text x="2072.4" y="474.4" text-anchor="middle" class="card">N</text>
<line x1="2315.0" y1="202" x2="2315.0" y2="441.0" class="rel-line"/>
<line x1="2315.0" y1="441.0" x2="2315.0" y2="680" class="rel-line"/>
<polygon points="2315.0,420.0 2358.0,441.0 2315.0,462.0 2272.0,441.0" class="diamond"/>
<text x="2315.0" y="445.0" text-anchor="middle" class="diamond-text">paid by</text>
<rect x="2304.0" y="263.48" width="22" height="22" rx="11" class="card-bg"/>
<text x="2315.0" y="279.48" text-anchor="middle" class="card">1</text>
<rect x="2304.0" y="588.52" width="22" height="22" rx="11" class="card-bg"/>
<text x="2315.0" y="604.52" text-anchor="middle" class="card">N</text>
<line x1="2315.0" y1="202" x2="2315.0" y2="531.0" class="rel-line"/>
<line x1="2315.0" y1="531.0" x2="2315.0" y2="860" class="rel-line"/>
<polygon points="2315.0,510.0 2358.0,531.0 2315.0,552.0 2272.0,531.0" class="diamond"/>
<text x="2315.0" y="535.0" text-anchor="middle" class="diamond-text">cancel req</text>
<rect x="2304.0" y="292.28" width="22" height="22" rx="11" class="card-bg"/>
<text x="2315.0" y="308.28" text-anchor="middle" class="card">1</text>
<rect x="2304.0" y="739.72" width="22" height="22" rx="11" class="card-bg"/>
<text x="2315.0" y="755.72" text-anchor="middle" class="card">N</text>
<line x1="280" y1="201.0" x2="1245.0" y2="546.0" class="rel-line"/>
<line x1="1245.0" y1="546.0" x2="2210" y2="891.0" class="rel-line"/>
<polygon points="1245.0,525.0 1288.0,546.0 1245.0,567.0 1202.0,546.0" class="diamond"/>
<text x="1245.0" y="550.0" text-anchor="middle" class="diamond-text">requests</text>
<rect x="577.8" y="296.4" width="22" height="22" rx="11" class="card-bg"/>
<text x="588.8" y="312.4" text-anchor="middle" class="card">1</text>
<rect x="1890.2" y="765.6" width="22" height="22" rx="11" class="card-bg"/>
<text x="1901.2" y="781.6" text-anchor="middle" class="card">N</text>
<line x1="1595.0" y1="202" x2="1595.0" y2="401.0" class="rel-line"/>
<line x1="1595.0" y1="401.0" x2="1595.0" y2="600" class="rel-line"/>
<polygon points="1595.0,380.0 1638.0,401.0 1595.0,422.0 1552.0,401.0" class="diamond"/>
<text x="1595.0" y="405.0" text-anchor="middle" class="diamond-text">used in</text>
<rect x="1584.0" y="250.68" width="22" height="22" rx="11" class="card-bg"/>
<text x="1595.0" y="266.68" text-anchor="middle" class="card">1</text>
<rect x="1584.0" y="521.32" width="22" height="22" rx="11" class="card-bg"/>
<text x="1595.0" y="537.32" text-anchor="middle" class="card">N</text>
<line x1="280" y1="201.0" x2="885.0" y2="416.0" class="rel-line"/>
<line x1="885.0" y1="416.0" x2="1490" y2="631.0" class="rel-line"/>
<polygon points="885.0,395.0 928.0,416.0 885.0,437.0 842.0,416.0" class="diamond"/>
<text x="885.0" y="420.0" text-anchor="middle" class="diamond-text">consumes</text>
<rect x="462.6" y="254.8" width="22" height="22" rx="11" class="card-bg"/>
<text x="473.6" y="270.8" text-anchor="middle" class="card">1</text>
<rect x="1285.4" y="547.2" width="22" height="22" rx="11" class="card-bg"/>
<text x="1296.4" y="563.2" text-anchor="middle" class="card">N</text>
<line x1="2210" y1="171.0" x2="1955.0" y2="401.0" class="rel-line"/>
<line x1="1955.0" y1="401.0" x2="1700" y2="631.0" class="rel-line"/>
<polygon points="1955.0,380.0 1998.0,401.0 1955.0,422.0 1912.0,401.0" class="diamond"/>
<text x="1955.0" y="405.0" text-anchor="middle" class="diamond-text">records</text>
<rect x="2117.4" y="229.60000000000002" width="22" height="22" rx="11" class="card-bg"/>
<text x="2128.4" y="245.60000000000002" text-anchor="middle" class="card">1</text>
<rect x="1770.6" y="542.4" width="22" height="22" rx="11" class="card-bg"/>
<text x="1781.6" y="558.4" text-anchor="middle" class="card">N</text>
<line x1="970" y1="171.0" x2="1780.0" y2="221.0" class="rel-line"/>
<line x1="1780.0" y1="221.0" x2="2590" y2="271.0" class="rel-line"/>
<polygon points="1780.0,200.0 1823.0,221.0 1780.0,242.0 1737.0,221.0" class="diamond"/>
<text x="1780.0" y="225.0" text-anchor="middle" class="diamond-text">reviewed</text>
<rect x="1218.2" y="172.0" width="22" height="22" rx="11" class="card-bg"/>
<text x="1229.2" y="188.0" text-anchor="middle" class="card">1</text>
<rect x="2319.8" y="240.0" width="22" height="22" rx="11" class="card-bg"/>
<text x="2330.8" y="256.0" text-anchor="middle" class="card">N</text>
<line x1="280" y1="201.0" x2="1435.0" y2="236.0" class="rel-line"/>
<line x1="1435.0" y1="236.0" x2="2590" y2="271.0" class="rel-line"/>
<polygon points="1435.0,215.0 1478.0,236.0 1435.0,257.0 1392.0,236.0" class="diamond"/>
<text x="1435.0" y="240.0" text-anchor="middle" class="diamond-text">writes</text>
<rect x="638.6" y="197.2" width="22" height="22" rx="11" class="card-bg"/>
<text x="649.6" y="213.2" text-anchor="middle" class="card">1</text>
<rect x="2209.4" y="244.8" width="22" height="22" rx="11" class="card-bg"/>
<text x="2220.4" y="260.8" text-anchor="middle" class="card">N</text>
<line x1="2420" y1="171.0" x2="2505.0" y2="221.0" class="rel-line"/>
<line x1="2505.0" y1="221.0" x2="2590" y2="271.0" class="rel-line"/>
<polygon points="2505.0,200.0 2548.0,221.0 2505.0,242.0 2462.0,221.0" class="diamond"/>
<text x="2505.0" y="225.0" text-anchor="middle" class="diamond-text">verifies</text>
<rect x="2436.2" y="172.0" width="22" height="22" rx="11" class="card-bg"/>
<text x="2447.2" y="188.0" text-anchor="middle" class="card">1</text>
<rect x="2551.8" y="240.0" width="22" height="22" rx="11" class="card-bg"/>
<text x="2562.8" y="256.0" text-anchor="middle" class="card">N</text>
<line x1="2695.0" y1="302" x2="2695.0" y2="391.0" class="rel-line"/>
<line x1="2695.0" y1="391.0" x2="2695.0" y2="480" class="rel-line"/>
<polygon points="2695.0,370.0 2738.0,391.0 2695.0,412.0 2652.0,391.0" class="diamond"/>
<text x="2695.0" y="395.0" text-anchor="middle" class="diamond-text">helpful</text>
<rect x="2684.0" y="315.48" width="22" height="22" rx="11" class="card-bg"/>
<text x="2695.0" y="331.48" text-anchor="middle" class="card">1</text>
<rect x="2684.0" y="436.52" width="22" height="22" rx="11" class="card-bg"/>
<text x="2695.0" y="452.52" text-anchor="middle" class="card">N</text>
<line x1="280" y1="201.0" x2="1435.0" y2="356.0" class="rel-line"/>
<line x1="1435.0" y1="356.0" x2="2590" y2="511.0" class="rel-line"/>
<polygon points="1435.0,335.0 1478.0,356.0 1435.0,377.0 1392.0,356.0" class="diamond"/>
<text x="1435.0" y="360.0" text-anchor="middle" class="diamond-text">votes</text>
<rect x="638.6" y="235.6" width="22" height="22" rx="11" class="card-bg"/>
<text x="649.6" y="251.6" text-anchor="middle" class="card">1</text>
<rect x="2209.4" y="446.4" width="22" height="22" rx="11" class="card-bg"/>
<text x="2220.4" y="462.4" text-anchor="middle" class="card">N</text>
<rect x="70" y="170" width="210" height="62" rx="12" class="entity"/>
<text x="175.0" y="207" text-anchor="middle" class="entity-text">User</text>
<rect x="70" y="330" width="210" height="62" rx="12" class="entity"/>
<text x="175.0" y="367" text-anchor="middle" class="entity-text">User Address</text>
<rect x="70" y="490" width="210" height="62" rx="12" class="entity"/>
<text x="175.0" y="527" text-anchor="middle" class="entity-text">Activity Log</text>
<rect x="70" y="650" width="210" height="62" rx="12" class="entity"/>
<text x="175.0" y="687" text-anchor="middle" class="entity-text">App Settings</text>
<rect x="420" y="140" width="210" height="62" rx="12" class="entity"/>
<text x="525.0" y="177" text-anchor="middle" class="entity-text">Category</text>
<rect x="760" y="140" width="210" height="62" rx="12" class="entity"/>
<text x="865.0" y="177" text-anchor="middle" class="entity-text">Product</text>
<rect x="420" y="380" width="210" height="62" rx="12" class="entity"/>
<text x="525.0" y="417" text-anchor="middle" class="entity-text">Portion</text>
<rect x="760" y="380" width="210" height="62" rx="12" class="entity"/>
<text x="865.0" y="417" text-anchor="middle" class="entity-text">Product Portion</text>
<rect x="590" y="600" width="210" height="62" rx="12" class="entity"/>
<text x="695.0" y="637" text-anchor="middle" class="entity-text">Product Category</text>
<rect x="760" y="600" width="210" height="62" rx="12" class="entity"/>
<text x="865.0" y="637" text-anchor="middle" class="entity-text">Product Image</text>
<rect x="1140" y="140" width="210" height="62" rx="12" class="entity"/>
<text x="1245.0" y="177" text-anchor="middle" class="entity-text">Modifier</text>
<rect x="1140" y="320" width="210" height="62" rx="12" class="entity"/>
<text x="1245.0" y="357" text-anchor="middle" class="entity-text">Modifier Portion</text>
<rect x="1140" y="500" width="210" height="62" rx="12" class="entity"/>
<text x="1245.0" y="537" text-anchor="middle" class="entity-text">Modifier Combination</text>
<rect x="1140" y="680" width="210" height="62" rx="12" class="entity"/>
<text x="1245.0" y="717" text-anchor="middle" class="entity-text">Combination Item</text>
<rect x="1490" y="140" width="210" height="62" rx="12" class="entity"/>
<text x="1595.0" y="177" text-anchor="middle" class="entity-text">Offer</text>
<rect x="1490" y="360" width="210" height="62" rx="12" class="entity"/>
<text x="1595.0" y="397" text-anchor="middle" class="entity-text">Offer Product Category</text>
<rect x="1490" y="600" width="210" height="62" rx="12" class="entity"/>
<text x="1595.0" y="637" text-anchor="middle" class="entity-text">Offer Usage</text>
<rect x="1860" y="140" width="210" height="62" rx="12" class="entity"/>
<text x="1965.0" y="177" text-anchor="middle" class="entity-text">Cart</text>
<rect x="1860" y="320" width="210" height="62" rx="12" class="entity"/>
<text x="1965.0" y="357" text-anchor="middle" class="entity-text">Cart Item</text>
<rect x="1860" y="500" width="210" height="62" rx="12" class="entity"/>
<text x="1965.0" y="537" text-anchor="middle" class="entity-text">Cart Item Modifier</text>
<rect x="2210" y="140" width="210" height="62" rx="12" class="entity"/>
<text x="2315.0" y="177" text-anchor="middle" class="entity-text">Order</text>
<rect x="2210" y="320" width="210" height="62" rx="12" class="entity"/>
<text x="2315.0" y="357" text-anchor="middle" class="entity-text">Order Item</text>
<rect x="2210" y="500" width="210" height="62" rx="12" class="entity"/>
<text x="2315.0" y="537" text-anchor="middle" class="entity-text">Order Item Modifier</text>
<rect x="2210" y="680" width="210" height="62" rx="12" class="entity"/>
<text x="2315.0" y="717" text-anchor="middle" class="entity-text">Payment</text>
<rect x="2210" y="860" width="210" height="62" rx="12" class="entity"/>
<text x="2315.0" y="897" text-anchor="middle" class="entity-text">Cancel Request</text>
<rect x="2590" y="240" width="210" height="62" rx="12" class="entity"/>
<text x="2695.0" y="277" text-anchor="middle" class="entity-text">Product Review</text>
<rect x="2590" y="480" width="210" height="62" rx="12" class="entity"/>
<text x="2695.0" y="517" text-anchor="middle" class="entity-text">Review Helpful</text>
</svg>