<svg xmlns="http://www.w3.org/2000/svg" width="2700" height="860" viewBox="0 0 2700 860" font-family="Segoe UI, Arial, sans-serif">
<defs><style><![CDATA[.title { font-size: 30px; font-weight: 700; fill: #102a43; }.subtitle { font-size: 14px; fill: #52606d; }.group-title { font-size: 20px; font-weight: 700; fill: #16324f; }.entity { fill: #ffffff; stroke: #334e68; stroke-width: 2.2; }.entity-text { font-size: 16px; font-weight: 700; fill: #102a43; }.diamond { fill: #fff7d6; stroke: #b7791f; stroke-width: 2.1; }.diamond-text { font-size: 11px; font-weight: 700; fill: #7c4a03; }.rel-line { stroke: #486581; stroke-width: 2; }.card-bg { fill: #ffffff; stroke: #dd6b20; stroke-width: 1.6; }.card { font-size: 12px; font-weight: 700; fill: #c05621; }.legend { font-size: 13px; fill: #243b53; }]]></style></defs>
<rect width="100%" height="100%" fill="#fbfcfe"/>
<text x="34" y="42" class="title">Master Tables ER Diagram</text>
<text x="34" y="64" class="subtitle">Only the master tables and their key business relationships from New_schema.sql.</text>
<rect x="1500" y="18" width="1160" height="52" rx="12" fill="#ffffff" stroke="#d9e2ec"/>
<text x="1518" y="50" class="legend">Shown tables: user_master, category_master, product_master, portion_master, modifier_master, offer_master, cart_master, order_master, payment_master.</text>
<rect x="54" y="160" width="322" height="200" rx="24" fill="#eef6ff" stroke="#82b1ff" stroke-width="2"/>
<text x="72" y="194" class="group-title">Core</text>
<rect x="434" y="10" width="782" height="620" rx="24" fill="#effcf4" stroke="#73c98b" stroke-width="2"/>
<text x="452" y="44" class="group-title">Catalog</text>
<rect x="1364" y="10" width="1222" height="430" rx="24" fill="#fff4fb" stroke="#e58cc6" stroke-width="2"/>
<text x="1382" y="44" class="group-title">Sales</text>
<line x1="340" y1="275.0" x2="405.0" y2="200.0" class="rel-line"/>
<line x1="405.0" y1="200.0" x2="470" y2="125.0" class="rel-line"/>
<polygon points="405.0,176.0 455.0,200.0 405.0,224.0 355.0,200.0" class="diamond"/>
<text x="405.0" y="204.0" text-anchor="middle" class="diamond-text">manages</text>
<circle cx="359.5" cy="252.5" r="13" class="card-bg"/>
<text x="359.5" y="256.5" text-anchor="middle" class="card">1</text>
<circle cx="450.5" cy="147.5" r="13" class="card-bg"/>
<text x="450.5" y="151.5" text-anchor="middle" class="card">N</text>
<path d="M 720 108 C 760 72, 766 97.0, 762.0 125.0" class="rel-line"/>
<path d="M 862.0 125.0 C 858 153.0, 760 178, 720 142" class="rel-line"/>
<polygon points="812,101.0 862.0,125.0 812,149.0 762.0,125.0" class="diamond"/>
<text x="812" y="129.0" text-anchor="middle" class="diamond-text">parent</text>
<circle cx="752" cy="96" r="13" class="card-bg"/>
<text x="752" y="100" text-anchor="middle" class="card">1</text>
<circle cx="752" cy="154" r="13" class="card-bg"/>
<text x="752" y="158" text-anchor="middle" class="card">N</text>
<line x1="720" y1="125.0" x2="825.0" y2="125.0" class="rel-line"/>
<line x1="825.0" y1="125.0" x2="930" y2="125.0" class="rel-line"/>
<polygon points="825.0,101.0 875.0,125.0 825.0,149.0 775.0,125.0" class="diamond"/>
<text x="825.0" y="129.0" text-anchor="middle" class="diamond-text">contains</text>
<circle cx="751.5" cy="125.0" r="13" class="card-bg"/>
<text x="751.5" y="129.0" text-anchor="middle" class="card">1</text>
<circle cx="898.5" cy="125.0" r="13" class="card-bg"/>
<text x="898.5" y="129.0" text-anchor="middle" class="card">N</text>
<line x1="340" y1="275.0" x2="635.0" y2="200.0" class="rel-line"/>
<line x1="635.0" y1="200.0" x2="930" y2="125.0" class="rel-line"/>
<polygon points="635.0,176.0 685.0,200.0 635.0,224.0 585.0,200.0" class="diamond"/>
<text x="635.0" y="204.0" text-anchor="middle" class="diamond-text">creates</text>
<circle cx="428.5" cy="252.5" r="13" class="card-bg"/>
<text x="428.5" y="256.5" text-anchor="middle" class="card">1</text>
<circle cx="841.5" cy="147.5" r="13" class="card-bg"/>
<text x="841.5" y="151.5" text-anchor="middle" class="card">N</text>
<line x1="340" y1="275.0" x2="635.0" y2="305.0" class="rel-line"/>
<line x1="635.0" y1="305.0" x2="930" y2="335.0" class="rel-line"/>
<polygon points="635.0,281.0 685.0,305.0 635.0,329.0 585.0,305.0" class="diamond"/>
<text x="635.0" y="309.0" text-anchor="middle" class="diamond-text">defines</text>
<circle cx="428.5" cy="284.0" r="13" class="card-bg"/>
<text x="428.5" y="288.0" text-anchor="middle" class="card">1</text>
<circle cx="841.5" cy="326.0" r="13" class="card-bg"/>
<text x="841.5" y="330.0" text-anchor="middle" class="card">N</text>
<line x1="340" y1="275.0" x2="635.0" y2="410.0" class="rel-line"/>
<line x1="635.0" y1="410.0" x2="930" y2="545.0" class="rel-line"/>
<polygon points="635.0,386.0 685.0,410.0 635.0,434.0 585.0,410.0" class="diamond"/>
<text x="635.0" y="414.0" text-anchor="middle" class="diamond-text">defines</text>
<circle cx="428.5" cy="315.5" r="13" class="card-bg"/>
<text x="428.5" y="319.5" text-anchor="middle" class="card">1</text>
<circle cx="841.5" cy="504.5" r="13" class="card-bg"/>
<text x="841.5" y="508.5" text-anchor="middle" class="card">N</text>
<line x1="720" y1="125.0" x2="1060.0" y2="125.0" class="rel-line"/>
<line x1="1060.0" y1="125.0" x2="1400" y2="125.0" class="rel-line"/>
<polygon points="1060.0,101.0 1110.0,125.0 1060.0,149.0 1010.0,125.0" class="diamond"/>
<text x="1060.0" y="129.0" text-anchor="middle" class="diamond-text">offer for</text>
<circle cx="822.0" cy="125.0" r="13" class="card-bg"/>
<text x="822.0" y="129.0" text-anchor="middle" class="card">1</text>
<circle cx="1298.0" cy="125.0" r="13" class="card-bg"/>
<text x="1298.0" y="129.0" text-anchor="middle" class="card">N</text>
<line x1="1180" y1="125.0" x2="1290.0" y2="125.0" class="rel-line"/>
<line x1="1290.0" y1="125.0" x2="1400" y2="125.0" class="rel-line"/>
<polygon points="1290.0,101.0 1340.0,125.0 1290.0,149.0 1240.0,125.0" class="diamond"/>
<text x="1290.0" y="129.0" text-anchor="middle" class="diamond-text">offer on</text>
<circle cx="1213.0" cy="125.0" r="13" class="card-bg"/>
<text x="1213.0" y="129.0" text-anchor="middle" class="card">1</text>
<circle cx="1367.0" cy="125.0" r="13" class="card-bg"/>
<text x="1367.0" y="129.0" text-anchor="middle" class="card">N</text>
<line x1="340" y1="275.0" x2="870.0" y2="200.0" class="rel-line"/>
<line x1="870.0" y1="200.0" x2="1400" y2="125.0" class="rel-line"/>
<polygon points="870.0,176.0 920.0,200.0 870.0,224.0 820.0,200.0" class="diamond"/>
<text x="870.0" y="204.0" text-anchor="middle" class="diamond-text">creates</text>
<circle cx="499.0" cy="252.5" r="13" class="card-bg"/>
<text x="499.0" y="256.5" text-anchor="middle" class="card">1</text>
<circle cx="1241.0" cy="147.5" r="13" class="card-bg"/>
<text x="1241.0" y="151.5" text-anchor="middle" class="card">N</text>
<line x1="340" y1="275.0" x2="870.0" y2="315.0" class="rel-line"/>
<line x1="870.0" y1="315.0" x2="1400" y2="355.0" class="rel-line"/>
<polygon points="870.0,291.0 920.0,315.0 870.0,339.0 820.0,315.0" class="diamond"/>
<text x="870.0" y="319.0" text-anchor="middle" class="diamond-text">owns</text>
<circle cx="499.0" cy="287.0" r="13" class="card-bg"/>
<text x="499.0" y="291.0" text-anchor="middle" class="card">1</text>
<circle cx="1241.0" cy="343.0" r="13" class="card-bg"/>
<text x="1241.0" y="347.0" text-anchor="middle" class="card">1</text>
<line x1="1525.0" y1="160" x2="1525.0" y2="240.0" class="rel-line"/>
<line x1="1525.0" y1="240.0" x2="1525.0" y2="320" class="rel-line"/>
<polygon points="1525.0,216.0 1575.0,240.0 1525.0,264.0 1475.0,240.0" class="diamond"/>
<text x="1525.0" y="244.0" text-anchor="middle" class="diamond-text">applies</text>
<circle cx="1525.0" cy="184.0" r="13" class="card-bg"/>
<text x="1525.0" y="188.0" text-anchor="middle" class="card">1</text>
<circle cx="1525.0" cy="296.0" r="13" class="card-bg"/>
<text x="1525.0" y="300.0" text-anchor="middle" class="card">N</text>
<line x1="340" y1="275.0" x2="1100.0" y2="265.0" class="rel-line"/>
<line x1="1100.0" y1="265.0" x2="1860" y2="255.0" class="rel-line"/>
<polygon points="1100.0,241.0 1150.0,265.0 1100.0,289.0 1050.0,265.0" class="diamond"/>
<text x="1100.0" y="269.0" text-anchor="middle" class="diamond-text">places</text>
<circle cx="568.0" cy="272.0" r="13" class="card-bg"/>
<text x="568.0" y="276.0" text-anchor="middle" class="card">1</text>
<circle cx="1632.0" cy="258.0" r="13" class="card-bg"/>
<text x="1632.0" y="262.0" text-anchor="middle" class="card">N</text>
<line x1="340" y1="275.0" x2="1100.0" y2="297.0" class="rel-line"/>
<line x1="1100.0" y1="297.0" x2="1860" y2="255.0" class="rel-line"/>
<polygon points="1100.0,273.0 1150.0,297.0 1100.0,321.0 1050.0,297.0" class="diamond"/>
<text x="1100.0" y="301.0" text-anchor="middle" class="diamond-text">admin tracks</text>
<circle cx="568.0" cy="281.6" r="13" class="card-bg"/>
<text x="568.0" y="285.6" text-anchor="middle" class="card">1</text>
<circle cx="1632.0" cy="267.6" r="13" class="card-bg"/>
<text x="1632.0" y="271.6" text-anchor="middle" class="card">N</text>
<line x1="2110" y1="255.0" x2="2205.0" y2="255.0" class="rel-line"/>
<line x1="2205.0" y1="255.0" x2="2300" y2="255.0" class="rel-line"/>
<polygon points="2205.0,231.0 2255.0,255.0 2205.0,279.0 2155.0,255.0" class="diamond"/>
<text x="2205.0" y="259.0" text-anchor="middle" class="diamond-text">paid by</text>
<circle cx="2138.5" cy="255.0" r="13" class="card-bg"/>
<text x="2138.5" y="259.0" text-anchor="middle" class="card">1</text>
<circle cx="2271.5" cy="255.0" r="13" class="card-bg"/>
<text x="2271.5" y="259.0" text-anchor="middle" class="card">N</text>
<line x1="340" y1="275.0" x2="1320.0" y2="265.0" class="rel-line"/>
<line x1="1320.0" y1="265.0" x2="2300" y2="255.0" class="rel-line"/>
<polygon points="1320.0,241.0 1370.0,265.0 1320.0,289.0 1270.0,265.0" class="diamond"/>
<text x="1320.0" y="269.0" text-anchor="middle" class="diamond-text">records</text>
<circle cx="634.0" cy="272.0" r="13" class="card-bg"/>
<text x="634.0" y="276.0" text-anchor="middle" class="card">1</text>
<circle cx="2006.0" cy="258.0" r="13" class="card-bg"/>
<text x="2006.0" y="262.0" text-anchor="middle" class="card">N</text>
<rect x="90" y="240" width="250" height="70" rx="14" class="entity"/>
<text x="215.0" y="282" text-anchor="middle" class="entity-text">User Master</text>
<rect x="470" y="90" width="250" height="70" rx="14" class="entity"/>
<text x="595.0" y="132" text-anchor="middle" class="entity-text">Category Master</text>
<rect x="930" y="90" width="250" height="70" rx="14" class="entity"/>
<text x="1055.0" y="132" text-anchor="middle" class="entity-text">Product Master</text>
<rect x="930" y="300" width="250" height="70" rx="14" class="entity"/>
<text x="1055.0" y="342" text-anchor="middle" class="entity-text">Portion Master</text>
<rect x="930" y="510" width="250" height="70" rx="14" class="entity"/>
<text x="1055.0" y="552" text-anchor="middle" class="entity-text">Modifier Master</text>
<rect x="1400" y="90" width="250" height="70" rx="14" class="entity"/>
<text x="1525.0" y="132" text-anchor="middle" class="entity-text">Offer Master</text>
<rect x="1400" y="320" width="250" height="70" rx="14" class="entity"/>
<text x="1525.0" y="362" text-anchor="middle" class="entity-text">Cart Master</text>
<rect x="1860" y="220" width="250" height="70" rx="14" class="entity"/>
<text x="1985.0" y="262" text-anchor="middle" class="entity-text">Order Master</text>
<rect x="2300" y="220" width="250" height="70" rx="14" class="entity"/>
<text x="2425.0" y="262" text-anchor="middle" class="entity-text">Payment Master</text>
</svg>